<svg xmlns="http://www.w3.org/2000/svg" xmlns:xlink="http://www.w3.org/1999/xlink" aria-hidden="true" focusable="false" height="50px" version="1.1" viewBox="0 0 132 50" width="132px">
    <title>Lloyds Banking Group plc</title>
    <desc></desc>
    <g fill="none" fill-rule="evenodd" stroke="none" stroke-width="1">
        <g transform="translate(-113.000000, -190.000000)">
            <g transform="translate(113.000000, 190.000000)">
                <g stroke-width="1" transform="translate(89.341463, 9.946237)">
                </g>
                <polygon fill="#00864F" points="0 50 132 50 132 0 0 0"></polygon>
                <polygon fill="#FFFFFE" points="85.3170732 46.7741935 128.243902 46.7741935 128.243902 3.76344086 85.3170732 3.76344086"></polygon>
                <g stroke-width="1" transform="translate(89.341463, 9.946237)">
                    <path d="M33.2873415,15.8209677 C33.944122,16.3032258 34.6229024,16.6545699 34.6229024,17.4217742 C34.6229024,17.6435484 34.3382439,17.8639785 33.7037317,17.8639785 C33.2221463,17.8639785 32.696561,17.7314516 32.4556341,17.3782258 C32.2589756,17.1145161 32.5430976,16.7634409 32.3681707,16.5013441 C32.2369756,16.2811828 31.9300488,16.3908602 31.733122,16.2811828 C31.4927317,16.1497312 31.471,16.0397849 31.3167317,15.7110215 C31.1423415,15.316129 30.5507561,14.6577957 29.8499756,13.955914 C29.2594634,13.3639785 28.6241463,13.0569892 28.3397561,13.0787634 C28.139878,13.1002688 28.0752195,13.1002688 27.8780244,13.1002688 C27.3739024,13.1002688 26.9355122,13.5833333 26.2138049,13.8903226 C25.7107561,14.1091398 25.4252927,14.2413978 25.0971707,14.2852151 L24.9879756,14.4169355 L25.6442195,14.3954301 C26.257,14.3954301 27.0675122,14.3072581 27.6802927,14.3072581 C28.3174878,14.3072581 28.6241463,14.8774194 28.8650732,15.4696237 C29.3474634,16.6763441 30.0699756,18.411828 30.9236829,19.8591398 C31.339,20.5392473 31.6896585,20.977957 31.6896585,21.8155914 C31.6896585,22.0790323 31.6676585,22.4295699 31.3167317,22.4295699 C30.8356829,22.4295699 29.6098537,21.9252688 29.6098537,21.3747312 C29.6098537,20.955914 29.9382439,20.7806452 29.9382439,20.3639785 C29.9382439,20.1005376 29.5438537,20.1448925 29.4566585,19.9034946 C29.1497317,18.6094086 28.7773415,17.3344086 28.0529512,16.5663978 C27.6802927,16.1715054 27.636561,15.9962366 27.2652439,15.9962366 C27.0675122,15.9962366 26.8700488,16.0397849 26.6948537,16.1061828 C25.6882195,16.4793011 24.3531951,17.6 22.6889756,18.1048387 C22.0541951,18.3018817 21.9447317,17.9293011 21.2876829,18.0610215 L21.3319512,18.0610215 C20.8039512,18.1701613 20.3872927,18.4771505 19.6650488,18.675 C18.6584146,18.9602151 16.9279268,19.0913978 15.5489024,18.9166667 C14.5645366,18.7846774 13.2914878,18.5876344 12.7441707,18.6094086 C12.3288537,19.8155914 11.430878,21.3967742 10.1175854,22.013172 C9.41707317,22.3196237 9.19760976,22.7583333 9.41707317,23.5467742 C9.68,24.5333333 10.555439,25.2591398 11.0147561,26.0922043 C11.430878,26.8145161 12.1088537,27.9572581 12.8319024,28.3303763 C13.5544146,28.7024194 13.9949512,29.25 13.9949512,29.7102151 C13.9949512,29.9295699 13.9045366,30.0612903 13.6861463,30.0612903 L12.2416585,30.0612903 C12.0213902,30.0612903 11.9124634,29.9295699 11.8681951,29.8413978 C11.6718049,29.469086 11.803,29.1185484 11.5411463,28.7897849 C11.342878,28.5491935 11.1899512,28.6145161 10.9492927,28.4174731 C10.5111707,28.0010753 10.8398293,27.7599462 10.5111707,27.2311828 C9.592,25.7849462 9.19760976,25.4344086 8.43190244,24.4016129 C7.99431707,23.8537634 7.46846341,23.5903226 7.46846341,22.8672043 C7.46846341,21.991129 8.34390244,21.8373656 8.32217073,20.955914 C7.75312195,21.3747312 7.09553659,21.7034946 6.0864878,21.8373656 C5.95502439,21.8591398 5.60436585,22.1223118 5.45117073,22.2975806 C5.10104878,22.6483871 4.97012195,22.9991935 4.92558537,23.525 C4.81692683,24.7107527 4.57653659,25.9166667 4.72892683,27.0989247 C4.92558537,27.8693548 5.05758537,28.1322581 5.69209756,28.5491935 C6.0864878,28.8115591 6.54660976,29.1844086 6.59007317,29.7319892 C6.59007317,29.8854839 6.54660976,30.0612903 6.32768293,30.0612903 L4.77239024,30.0612903 C4.61973171,30.0612903 4.48853659,29.9513441 4.44426829,29.8634409 C4.26907317,29.5572581 4.37907317,29.3379032 4.31360976,28.986828 C4.15987805,28.2639785 3.34990244,28.3072581 3.34990244,27.5626344 C3.34990244,27.3405914 3.48082927,27.0556452 3.50256098,26.5956989 C3.54656098,25.5879032 3.85321951,23.9629032 3.54656098,21.991129 C3.41563415,20.8465054 4.59773171,20.8034946 5.21078049,19.7938172 C5.58263415,19.2225806 5.47343902,19.4650538 5.69209756,19.0478495 C5.91129268,18.6094086 5.86809756,18.3018817 5.84636585,18.0392473 C5.84636585,17.7099462 5.51717073,17.0051075 5.73636585,15.5793011 C5.82409756,14.9430108 6.12968293,14.3072581 6.54660976,13.758871 C6.54660976,13.736828 6.54660976,13.6494624 6.41460976,13.6494624 C5.80182927,13.6932796 5.80182927,13.5397849 5.38570732,13.5397849 C4.99185366,13.5397849 4.68519512,13.8685484 4.61973171,14.0435484 C4.42226829,13.955914 4.33534146,13.736828 4.33534146,13.6051075 C4.33534146,13.3854839 4.37907317,13.1884409 4.59773171,12.969086 C4.68519512,12.8814516 4.59773171,12.8379032 4.48853659,12.8379032 C4.00641463,12.8379032 3.54656098,13.4293011 3.43682927,13.8459677 C3.15297561,13.8024194 3.1312439,13.4293011 2.9995122,13.4293011 C2.86831707,13.4293011 2.78031707,13.6276882 2.78031707,13.825 C2.78031707,15.2284946 5.05758537,15.5354839 5.05758537,17.3782258 C5.05758537,19.5086022 2.49539024,19.069086 2.49539024,19.8373656 C2.49539024,19.9916667 2.60539024,20.1228495 2.80312195,20.2107527 C2.71512195,20.4075269 2.49539024,20.4951613 2.25553659,20.4951613 C1.6864878,20.4951613 1.26956098,20.0795699 1.26956098,19.5086022 C1.26956098,18.3454301 2.82378049,18.3236559 2.82378049,17.4438172 C2.82378049,17.0271505 2.56192683,16.8951613 2.32073171,16.6981183 C0.832512195,15.6448925 0,14.5922043 0,12.8596774 C0,10.9948925 1.29156098,9.56666667 2.9775122,9.56666667 C5.42943902,9.56666667 5.49543902,12.3983871 7.73085366,12.6400538 C8.56256098,12.0696237 9.548,11.7408602 10.5111707,11.7408602 C11.9561951,11.7408602 12.590439,12.1137097 14.1256098,12.1137097 C14.7394634,12.1137097 15.7689024,11.9384409 16.9936585,11.1048387 C17.4537805,10.7975806 17.6509756,10.7325269 18.0662927,10.3575269 C19.03,9.52284946 19.9277073,7.89973118 19.9277073,6.73709677 L19.9277073,6.80241935 C19.9277073,6.42983871 19.8399756,6.21021505 19.6650488,6.21021505 C19.1394634,6.21021505 18.679878,6.69327957 18.1542927,7.19811828 C17.8259024,7.54865591 18.3292195,7.70188172 17.5852439,8.1188172 C17.3223171,8.25053763 17.0161951,8.00913978 16.7312683,8.00913978 C16.1402195,8.00913978 15.877561,7.30752688 15.877561,6.69327957 C15.877561,6.38575269 16.1184878,6.29811828 16.2494146,6.01317204 C16.5571463,5.42043011 16.5346098,5.2016129 16.819,4.6094086 C16.9936585,4.21344086 17.3013902,3.95107527 17.279122,3.66586022 C17.279122,3.55672043 17.1916585,3.48978495 17.1916585,3.38010753 C17.1916585,2.78521505 17.9796341,2.39086022 17.9796341,1.79892473 C17.9796341,1.47016129 17.6072439,1.31612903 17.5195122,1.05295699 C17.4317805,0.790053763 17.4975122,0.724193548 17.4975122,0.724193548 C17.5195122,0.67983871 17.5635122,0.657795699 17.6072439,0.657795699 C17.9141707,0.657795699 18.0453659,0.987096774 18.3292195,1.16263441 C18.3520244,0.76827957 18.220561,0.67983871 18.220561,0.39516129 C18.220561,0.241666667 18.198561,-7.10542736e-15 18.3520244,-7.10542736e-15 C18.5489512,-7.10542736e-15 18.5264146,0.26344086 18.7024146,0.39516129 C18.9210732,0.57016129 19.1177317,0.548655914 19.3589268,0.70188172 C19.6650488,0.899731183 19.8399756,1.22822581 19.949439,1.25 C20.2560976,1.29408602 20.343561,0.920967742 20.1903659,0.70188172 C20.5404878,0.67983871 20.8911463,0.965591398 21.3531463,0.965591398 C22.0759268,0.965591398 22.3173902,1.16263441 22.4483171,1.27177419 C22.908439,1.66747312 22.9956341,1.97419355 23.4989512,1.97419355 C23.7613415,1.97419355 23.8928049,1.75456989 23.9588049,1.66747312 C24.3094634,1.93010753 24.3311951,2.58817204 23.9588049,3.13629032 C24.112,3.60053763 24.7685122,3.64408602 25.075439,3.86290323 C25.3818293,4.08225806 25.3383659,4.1922043 25.5567561,4.32419355 C25.7324878,4.43413978 25.8856829,4.41182796 26.0166098,4.32419355 C26.1703415,4.93763441 25.6442195,5.48682796 25.0099756,5.57365591 C25.0319756,6.36397849 25.8636829,6.84623656 26.2355366,7.04354839 C26.0166098,7.52688172 25.6222195,7.67956989 25.2723659,7.76774194 C25.3818293,8.25053763 25.9074146,8.95268817 25.6442195,9.58790323 C25.403561,9.47930108 25.0537073,9.58790323 25.0537073,9.93897849 C25.0537073,10.3341398 25.5567561,10.5346774 25.0319756,10.8193548 C24.7905122,10.9510753 24.7465122,11.3018817 25.1846341,11.6314516 C25.7544878,11.4776882 26.3007317,11.4994624 26.9355122,11.4994624 C27.330439,11.4994624 27.8560244,11.3897849 28.2056098,11.3897849 C28.8650732,11.3897849 29.2594634,11.6532258 29.7410488,12.1798387 C30.9454146,13.4951613 32.0397805,14.8774194 33.2873415,15.8209677" fill="#0A0B09"></path>
                    <path d="M0.788512195,12.3112903 C1.05170732,12.3112903 1.53302439,10.8634409 2.51792683,10.8634409 C2.80312195,10.8634409 2.86831707,10.9731183 2.86831707,11.0825269 C2.86831707,11.2801075 2.53992683,11.455914 2.53992683,11.719086 C2.53992683,11.7629032 2.56192683,11.8282258 2.64939024,11.8282258 C2.89031707,11.8282258 3.0655122,11.3018817 4.04987805,11.3018817 C4.31360976,11.3018817 4.532,11.3236559 4.77239024,11.3897849 C4.88185366,11.411828 5.10104878,11.5217742 5.01385366,11.2145161 C4.77239024,10.5346774 4.02868293,9.89516129 2.9775122,9.89516129 C1.92660976,9.89516129 0.832512195,10.8422043 0.700780488,11.9819892 C0.678780488,12.1798387 0.678780488,12.3112903 0.788512195,12.3112903" fill="#676866"></path>
                    <path d="M18.9645366,3.27096774 C18.679878,3.15860215 18.6364146,3.00510753 18.7244146,2.65430108 C18.7893415,2.28145161 18.8113415,2.12795699 18.6364146,2.08360215 C18.4829512,2.03978495 18.2857561,2.12795699 18.0888293,2.34731183 C17.9141707,2.58817204 17.6287073,2.87392473 17.5415122,3.11478495 C17.4537805,3.42446237 17.8259024,3.38010753 17.5635122,3.88521505 C17.1036585,4.71854839 16.9936585,4.89354839 16.775,5.48682796 C16.5783415,6.10080645 16.4251463,6.18844086 16.3156829,6.38575269 C16.1839512,6.56182796 16.4911463,6.58360215 16.8412683,6.47446237 C17.2136585,6.34139785 17.235122,6.78064516 17.1036585,7.08763441 C16.9936585,7.30752688 17.0813902,7.39462366 17.3883171,7.15403226 C17.6727073,6.93387097 17.235122,6.75887097 17.3448537,6.05672043 C17.4537805,5.42043011 17.5852439,5.06962366 17.9796341,4.43413978 C18.3080244,3.88521505 18.5926829,3.48978495 19.1617317,3.68790323 C19.3803902,3.79758065 19.2714634,3.40268817 18.9645366,3.27096774" fill="#676866"></path>
                    <path d="M31.1423415,21.9034946 C31.2515366,21.9034946 31.2732683,21.7489247 31.2732683,21.6153226 C31.2732683,21.3091398 31.0983415,20.8465054 30.8576829,20.6491935 C30.7922195,21.1112903 30.5730244,21.4185484 30.5730244,21.6153226 C30.5730244,21.7717742 30.9891463,21.9034946 31.1423415,21.9034946" fill="#676866"></path>
                    <path d="M33.8563902,17.4884409 C34.0315854,17.4884409 34.2950488,17.4217742 34.2950488,17.2903226 C34.2950488,17.0271505 33.9006585,16.5663978 33.5502683,16.4572581 C33.7911951,16.9169355 33.5502683,17.4884409 33.8563902,17.4884409" fill="#676866"></path>
                    <path d="M21.8352683,11.4994624 C24.3094634,12.6400538 24.1554634,14.7239247 24.3749268,14.1965054 C24.4626585,13.9776882 24.7905122,12.9473118 23.9145366,11.9599462 C23.2360244,11.1701613 22.9739024,11.3674731 23.2360244,10.7104839 C24.3094634,8.09704301 24.9879756,4.14811828 21.7695366,2.76370968 C21.3974146,2.60994624 21.0883415,2.60994624 21.0883415,2.67607527 C21.0883415,2.74166667 21.4411463,2.85215054 21.8572683,3.13629032 C24.0025366,4.56478495 23.3452195,8.44758065 21.3754146,10.3341398 C20.7162195,10.9731183 21.022878,11.1266129 21.8352683,11.4994624" fill="#676866"></path>
                    <path d="M13.3792195,29.6884409 C13.5544146,29.6884409 13.4661463,29.4258065 13.4009512,29.3155914 C13.2480244,29.052957 12.9636341,28.8776882 12.7221707,28.7680108 C12.7876341,29.030914 12.8099024,29.6884409 13.0730976,29.6884409 L13.3792195,29.6884409" fill="#676866"></path>
                    <path d="M5.91129268,29.6884409 C6.0864878,29.6884409 5.95502439,29.4258065 5.88982927,29.3155914 C5.73636585,29.052957 5.42943902,28.8997312 5.1885122,28.7897849 C5.2545122,29.052957 5.29878049,29.6884409 5.56090244,29.6884409 L5.91129268,29.6884409" fill="#676866"></path>
                    <path d="M14.958122,14.8336022 C16.3156829,14.6801075 16.5346098,14.3733871 16.775,13.3419355 C16.8844634,12.8596774 17.235122,12.3548387 17.5415122,12.0255376 C17.738439,11.8064516 17.9356341,11.6314516 18.132561,11.3018817 C18.198561,11.1701613 18.2420244,11.0607527 18.132561,11.1048387 C17.9796341,11.2145161 17.5195122,11.5217742 17.3223171,11.675 C16.3591463,12.3548387 14.8915854,12.6836022 14.3016098,12.6836022 C13.0508293,12.6836022 11.9779268,12.3112903 10.8398293,12.3112903 C7.42473171,12.3112903 6.15141463,14.9879032 6.32768293,16.5446237 C6.34941463,16.7862903 6.39287805,16.8080645 6.48060976,16.8080645 C6.72153659,16.8080645 6.92114634,15.8862903 7.77485366,15.0752688 C9.02268293,13.8903226 10.3805122,13.2104839 12.307122,13.2104839 C13.7081463,13.2104839 14.2793415,13.6712366 14.2793415,13.8459677 C14.2793415,14.1965054 13.6861463,14.2193548 13.729878,14.5704301 C13.729878,14.6801075 14.0606829,14.9430108 14.958122,14.8336022" fill="#676866"></path>
                </g>
                <path d="M45.6285993,32.4180719 C45.3101127,32.3113148 44.7803224,32.1869845 44.2146587,32.1869845 C42.2534286,32.1869845 40.7865527,33.5005802 40.7865527,35.4169361 C40.7865527,37.2449867 42.0941853,38.682034 44.1617234,38.682034 C44.6919511,38.682034 45.3809847,38.558143 45.7699058,38.4513859 L45.7874051,38.4513859 L45.7874051,35.2394469 L44.7448864,35.2394469 C44.7448864,35.2394469 44.7448864,37.5995258 44.7448864,37.6351115 C44.6035799,37.6526846 44.3564027,37.6887097 44.1262874,37.6887097 C42.7832188,37.6887097 41.8820067,36.6593603 41.8820067,35.4169361 C41.8645075,34.1925244 42.8186549,33.2163339 44.2146587,33.2163339 C44.6740144,33.2163339 45.2042421,33.3406642 45.6285993,33.4825677 L45.6285993,32.4180719 Z M54.2828606,32.4198293 C53.964374,32.3130722 53.4341463,32.1891812 52.86892,32.1891812 C50.9072525,32.1891812 49.4403766,33.5023375 49.4403766,35.4186934 C49.4403766,37.2463047 50.7484466,38.6837913 52.8159848,38.6837913 C53.3462125,38.6837913 54.035246,38.5599004 54.4241672,38.4531433 L54.4416664,38.4531433 L54.4416664,35.2412042 L53.3991478,35.2412042 C53.3991478,35.2412042 53.3991478,37.6017224 53.3991478,37.6373081 C53.2574037,37.6548813 53.0106641,37.690467 52.7805487,37.690467 C51.4374802,37.690467 50.5362681,36.6611176 50.5362681,35.4186934 C50.5187688,34.1942817 51.4729162,33.2185306 52.86892,33.2185306 C53.3282757,33.2185306 53.8585035,33.3424215 54.2828606,33.484325 L54.2828606,32.4198293 Z M64.6559872,37.6724545 C65.8927478,37.6724545 66.7939599,36.6611176 66.7939599,35.4186934 C66.7939599,34.1942817 65.8927478,33.1825055 64.6559872,33.1825055 C63.4187892,33.1825055 62.5000778,34.1942817 62.5175771,35.4186934 C62.5175771,36.6611176 63.4187892,37.6724545 64.6559872,37.6724545 Z M64.6559872,32.1711687 C66.4759108,32.1711687 67.8898513,33.6086553 67.8898513,35.4186934 C67.8898513,37.2463047 66.4759108,38.6837913 64.6559872,38.6837913 C62.8356262,38.6837913 61.4216856,37.2463047 61.4216856,35.4186934 C61.4216856,33.6086553 62.8356262,32.1711687 64.6559872,32.1711687 Z M13.5900706,33.5005802 L14.4912827,35.8782322 L12.6534224,35.8782322 L13.5900706,33.5005802 Z M15.5517381,38.5932894 L16.7001274,38.5932894 L14.1023615,32.2225702 L13.0423436,32.2225702 L10.4800138,38.5932894 L11.6109037,38.5932894 L12.282438,36.8544227 L14.8627046,36.8544227 L15.5517381,38.5932894 Z M38.3830287,32.2401434 L38.3830287,36.6593603 L34.9369861,32.2401434 L33.9653394,32.2401434 L33.9653394,38.5932894 L35.0082956,38.5932894 L35.0082956,33.9618763 L38.6127066,38.5932894 L39.4259849,38.5932894 L39.4259849,32.2401434 L38.3830287,32.2401434 Z M7.59963479,33.2163339 C8.11192577,33.2163339 8.57128146,33.4825677 8.57128146,34.0150352 C8.57128146,34.5294902 8.18279779,34.866456 7.65213259,34.866456 L6.46830733,34.866456 L6.46830733,33.2163339 L7.59963479,33.2163339 Z M58.1348863,33.2361037 C58.771422,33.2361037 59.2303402,33.5199107 59.2303402,34.1767085 C59.2303402,34.7974813 58.8064205,35.1168739 58.1878215,35.1168739 L57.1807388,35.1168739 L57.1807388,33.2361037 L58.1348863,33.2361037 Z M77.7323128,33.2536769 C78.4217838,33.2536769 78.8461409,33.6618142 78.8461409,34.2830263 C78.8461409,34.9042384 78.4042845,35.2767899 77.6618782,35.2767899 L76.7961021,35.2767899 L76.7961021,33.2536769 L77.7323128,33.2536769 Z M7.75844062,35.8250733 C8.35954036,35.8250733 8.76596078,36.1800517 8.76596078,36.7125192 C8.76596078,37.2801331 8.34160361,37.6175383 7.56419878,37.6175383 L6.46830733,37.6175383 L6.46830733,35.8250733 L7.75844062,35.8250733 Z M31.0495244,38.5932894 L32.1274791,38.5932894 L32.1274791,32.2401434 L31.0495244,32.2401434 L31.0495244,38.5932894 Z M5.36585366,11.7177378 L5.36585366,25.8869975 L14.2651047,25.8869975 L14.2651047,23.5519604 L7.76762773,23.5519604 L7.76762773,11.7177378 L5.36585366,11.7177378 Z M16.7849988,11.7177378 L16.7849988,25.8869975 L25.6855623,25.8869975 L25.6855623,23.5519604 L19.1880853,23.5519604 L19.1880853,11.7177378 L16.7849988,11.7177378 Z M52.1488253,11.7177378 L48.3685466,18.2479336 L44.3126546,11.7177378 L41.5162721,11.7177378 L46.9900421,20.3457327 L43.6428702,25.8869975 L46.3206952,25.8869975 L54.8266503,11.7177378 L52.1488253,11.7177378 Z M61.2064447,14.0132352 C64.0023897,14.0132352 65.9714945,16.0710552 65.9714945,18.8023676 C65.9714945,21.5332407 64.0023897,23.6310397 61.2064447,23.6310397 L59.1187824,23.6310397 L59.1187824,14.0132352 L61.2064447,14.0132352 Z M72.3119155,12.5485101 C71.3275819,13.2611028 70.8148534,14.2900129 70.8148534,15.5170605 C70.8148534,17.8916373 72.6662756,18.9605263 74.5566337,19.5545 C76.2496876,20.1084947 77.6277546,20.5438703 77.6277546,21.929516 C77.6277546,23.2747434 76.3284342,23.8687171 75.1074231,23.8687171 C73.5324892,23.8687171 72.0358646,23.2356431 71.1298402,22.64123 L71.0510935,22.6021297 L71.0510935,25.0166854 L71.0909043,25.0166854 C71.9177446,25.4911614 73.4537425,26.0455955 75.1472339,26.0455955 C77.6277546,26.0455955 79.9512195,24.4227118 79.9512195,21.8499974 C79.9512195,19.4754206 78.3364749,18.3274523 76.0917567,17.6148596 C73.7682918,16.9022669 73.0600091,16.3882512 73.0600091,15.4775209 C73.0600091,14.1713938 74.3982654,13.7755578 75.6192765,13.7755578 C76.5646743,13.7755578 77.8250589,14.0132352 78.9668859,14.5672299 L79.0062592,14.5672299 L79.0062592,12.3112721 C77.9431789,11.8359175 76.8009144,11.5986795 75.4617832,11.5986795 C74.2805828,11.5986795 73.1383183,11.9549758 72.3119155,12.5485101 Z M33.7190372,23.8291774 C36.4756089,23.8291774 38.484087,21.5727804 38.484087,18.8023676 C38.484087,16.0710552 36.4756089,13.8150975 33.7190372,13.8150975 C31.0018389,13.8150975 28.9146141,16.0710552 28.9544249,18.8023676 C28.9544249,21.5727804 30.9624656,23.8291774 33.7190372,23.8291774 Z M56.7563817,11.7177378 L56.7563817,25.8869975 L61.2064447,25.8869975 C65.2234009,25.8869975 68.4520152,22.8789074 68.4520152,18.8023676 C68.4520152,14.7258279 65.1840275,11.7177378 61.2064447,11.7177378 L56.7563817,11.7177378 Z M33.7190372,11.5591398 C37.7359934,11.5591398 40.9256719,14.7649282 40.9256719,18.8023676 C40.9256719,22.8789074 37.7753668,26.0851351 33.7190372,26.0851351 C29.6233343,26.0851351 26.51284,22.8789074 26.51284,18.8023676 C26.51284,14.7649282 29.7025185,11.5591398 33.7190372,11.5591398 Z M73.049947,32.2419008 L73.049947,36.2705536 C73.049947,37.1048406 72.5726546,37.6724545 71.6889417,37.6724545 C70.8406648,37.6724545 70.3104371,37.1048406 70.3104371,36.2705536 L70.3104371,32.2419008 L69.2504192,32.2419008 L69.2504192,36.3061393 C69.2504192,37.7611991 70.2220658,38.6837913 71.6889417,38.6837913 C73.1378808,38.6837913 74.1274642,37.7611991 74.1274642,36.3061393 L74.1274642,32.2419008 L73.049947,32.2419008 Z M28.6639372,32.2401434 L26.0307353,35.2218737 L26.0307353,32.2401434 L24.9707173,32.2401434 L24.9707173,38.5932894 L26.0307353,38.5932894 L26.0307353,35.5588396 L28.7168724,38.5932894 L30.1483123,38.5932894 L27.2324973,35.3457647 L30.0065682,32.2401434 L28.6639372,32.2401434 Z M75.7710827,32.2419008 L75.7710827,38.5950467 L76.7961021,38.5950467 L76.7961021,36.3237125 L77.7148135,36.3237125 C78.9695108,36.3237125 79.9240957,35.5430237 79.9240957,34.2654531 C79.9240957,33.040602 79.0228835,32.2419008 77.7856855,32.2419008 L75.7710827,32.2419008 Z M22.0899009,32.2401434 L22.0899009,36.6593603 L18.6438582,32.2401434 L17.6722115,32.2401434 L17.6722115,38.5932894 L18.7322295,38.5932894 L18.7322295,33.9618763 L22.3195787,38.5932894 L23.1328571,38.5932894 L23.1328571,32.2401434 L22.0899009,32.2401434 Z M56.1202834,32.2419008 L56.1202834,38.5950467 L57.1807388,38.5950467 L57.1807388,36.0930644 L58.046515,36.0930644 L59.4250195,38.5950467 L60.6267815,38.5950467 L59.1069704,35.9335877 C59.8489392,35.6493415 60.3087324,34.9754098 60.3087324,34.1767085 C60.3087324,32.9167111 59.4425188,32.2419008 58.1878215,32.2419008 L56.1202834,32.2419008 Z M5.40828938,32.2401434 L5.40828938,38.5932894 L7.61713406,38.5932894 C8.85389459,38.5932894 9.86141475,38.0432487 9.86141475,36.7481049 C9.86141475,36.0913071 9.52542887,35.5588396 8.92476661,35.2043005 C9.29575102,35.0087988 9.6317369,34.5294902 9.6317369,33.9438638 C9.6317369,32.8257698 8.76596078,32.2401434 7.6875686,32.2401434 L5.40828938,32.2401434 L5.40828938,32.2401434 Z" fill="#FFFFFE"></path>
            </g>
        </g>
    </g>
</svg>