<svg width="2495" height="718" viewBox="0 0 2495 718" fill="none" xmlns="http://www.w3.org/2000/svg">
<path d="M2182.86 574.548C2182.86 604.315 2090.04 628.5 1975.47 628.5C1860.9 628.5 1768.17 604.315 1768.17 574.548C1768.17 544.781 1860.99 522.276 1975.47 522.276C2089.95 522.276 2182.86 544.781 2182.86 574.548Z" fill="#EE3224"/>
<path d="M1361.79 101.673L1341.48 167.237C1328.94 163.066 1307.16 160.066 1290.36 160.066C1231.92 160.066 1191.99 193.523 1191.99 284.713V462.023H1110.93V96.5414H1191.99V151.574C1213.11 116.676 1250.73 90.06 1306.14 90.06C1326.48 90.06 1347.3 94.351 1361.79 101.703" fill="black"/>
<path d="M1734.57 425.445C1685.46 454.671 1632.75 468.504 1576.8 468.504C1454.07 468.504 1372.41 393.698 1372.41 282.763C1372.41 171.828 1455.6 90.21 1580.88 90.21C1634.4 90.21 1680 102.003 1714.56 120.847L1696.86 187.972C1663.41 171.348 1626.96 161.236 1587.66 161.236C1502.49 161.236 1457.64 210.657 1457.64 277.692C1457.64 344.727 1503.6 397.418 1585.17 397.418C1626.84 397.418 1672.05 383.255 1701.24 364.921L1734.54 425.415" fill="black"/>
<path d="M854.85 399.339C908.19 399.339 947.19 373.053 978.03 328.463L1036.74 367.772C997.71 433.757 931.95 468.774 849.42 468.774C732.9 468.774 657.42 398.499 657.42 276.071C657.45 176.179 737.79 90.21 853.11 90.21C968.43 90.21 1035.66 166.757 1035.66 274.541V294.105H741.39C750.33 362.821 793.32 399.309 854.88 399.309M952.74 231.662C947.01 185.721 906.03 157.725 851.49 157.725C796.95 157.725 760.26 186.351 746.28 231.662H952.77H952.74Z" fill="black"/>
<path d="M1975.5 468.474C2094.12 468.474 2181.6 390.307 2181.6 279.222C2181.6 168.137 2094.12 90 1975.5 90C1856.88 90 1769.4 168.167 1769.4 279.222C1769.4 390.277 1856.88 468.474 1975.5 468.474ZM1975.5 398.469C1901.31 398.469 1852.02 347.457 1852.02 279.222C1852.02 210.987 1901.31 160.006 1975.5 160.006C2049.69 160.006 2098.98 210.987 2098.98 279.222C2098.98 347.457 2049.66 398.469 1975.5 398.469Z" fill="black"/>
<path d="M606.66 355.289C606.66 415.152 559.02 468.444 462.87 468.444C392.97 468.444 332.37 434.207 312 384.966L385.68 357.57C401.67 388.957 431.97 404.02 461.91 404.02C502.71 404.02 526.65 382.985 526.65 360.84C526.65 291.555 335.34 308.179 335.34 193.343C335.34 137.651 382.35 90 463.38 90C518.34 90 561.78 111.425 582.15 156.015L512.13 186.802C502.2 166.247 483.27 154.694 460.08 154.694C431.61 154.694 415.89 167.837 415.89 186.321C415.89 246.575 606.66 243.694 606.66 355.289Z" fill="black"/>
</svg>
