<svg width="512" height="512" viewBox="0 0 512 512" fill="none" xmlns="http://www.w3.org/2000/svg">
<g clip-path="url(#clip0_607_12)">
<path fill-rule="evenodd" clip-rule="evenodd" d="M0 0H512V512H0V0Z" fill="#FF0001"/>
<path fill-rule="evenodd" clip-rule="evenodd" d="M125.135 348.441C130.549 348.441 135.841 350.046 140.343 353.054C144.845 356.062 148.353 360.337 150.425 365.339C152.497 370.341 153.039 375.845 151.983 381.155C150.926 386.465 148.319 391.342 144.491 395.17C140.663 398.999 135.785 401.606 130.475 402.662C125.165 403.718 119.662 403.176 114.66 401.104C109.658 399.032 105.383 395.524 102.375 391.022C99.3669 386.521 97.7615 381.228 97.7615 375.814C97.7636 368.555 100.648 361.594 105.781 356.461C110.914 351.328 117.876 348.443 125.135 348.441ZM125.135 360.88C131.595 360.88 136.828 367.565 136.828 375.814C136.828 384.064 131.595 390.749 125.135 390.749C118.675 390.749 113.442 384.064 113.442 375.814C113.442 367.565 118.683 360.88 125.135 360.88ZM195.467 328.547H209.912V401.077C201.856 402.525 193.684 403.232 185.5 403.188C181.48 403.183 177.51 402.293 173.873 400.58C170.235 398.868 167.02 396.376 164.455 393.28C161.89 390.185 160.038 386.562 159.031 382.67C158.025 378.778 157.887 374.712 158.63 370.761C159.372 366.81 160.975 363.071 163.325 359.81C165.676 356.548 168.716 353.845 172.229 351.891C175.743 349.937 179.643 348.781 183.654 348.505C187.665 348.23 191.687 348.84 195.435 350.295V328.547H195.467ZM195.467 389.056V362.573C193.191 361.386 190.646 360.805 188.08 360.887C185.514 360.97 183.013 361.712 180.817 363.043C178.622 364.374 176.806 366.249 175.547 368.486C174.287 370.723 173.625 373.247 173.625 375.814C173.625 378.382 174.287 380.906 175.547 383.143C176.806 385.38 178.622 387.255 180.817 388.586C183.013 389.916 185.514 390.659 188.08 390.741C190.646 390.824 193.191 390.243 195.467 389.056ZM253.833 402.61H267.283V352.052C258.969 350.118 252.886 348.842 242.863 348.842C235.603 348.842 228.64 351.726 223.507 356.86C218.373 361.993 215.489 368.956 215.489 376.216C215.489 391.335 227.35 403.236 238.489 403.236C249.628 403.236 250.711 399.761 253.785 398.557L253.833 402.57V402.61ZM252.79 362.597V385.453C252.79 387.058 249.283 390.693 242.959 390.629C236.635 390.565 231.684 384.481 231.684 376.232C231.684 365.695 241.627 358.36 252.79 362.589V362.597ZM333.105 348.441C338.52 348.436 343.815 350.038 348.319 353.042C352.824 356.047 356.336 360.321 358.412 365.322C360.488 370.324 361.033 375.828 359.98 381.14C358.926 386.451 356.321 391.331 352.494 395.162C348.666 398.993 343.789 401.602 338.478 402.66C333.168 403.718 327.662 403.178 322.659 401.107C317.656 399.035 313.379 395.527 310.37 391.025C307.362 386.523 305.755 381.229 305.755 375.814C305.755 372.22 306.464 368.66 307.839 365.339C309.215 362.018 311.231 359 313.773 356.458C316.315 353.917 319.332 351.9 322.654 350.525C325.975 349.149 329.534 348.441 333.129 348.441H333.105ZM333.105 360.88C339.525 360.88 344.798 367.565 344.798 375.814C344.798 384.064 339.557 390.749 333.105 390.749C326.653 390.749 321.412 384.064 321.412 375.814C321.412 367.565 326.645 360.88 333.105 360.88ZM365.944 402.273V402.602H380.148V402.273H380.477V363.801C383.884 362.908 387.388 362.442 390.91 362.413C398.614 362.734 402.345 367.228 402.145 375.349V402.634H417.192V374.843C417.727 358.317 409.025 349.725 391.086 349.067C382.571 349.057 374.1 350.295 365.944 352.742V352.871V402.273ZM447.133 348.433C460.969 348.433 472.188 360.695 472.188 375.814C472.188 377.699 472.01 379.58 471.658 381.432H437.367C438.087 383.16 438.932 384.834 439.895 386.44C444.525 390.902 448.056 391.672 454.781 391.672C460.631 391.672 464.917 390.869 468.127 389.505L469.844 389.176L469.892 398.903C462.991 403.99 453.272 403.332 447.149 403.332C433.354 403.324 422.119 390.926 422.119 375.814C422.119 360.703 433.354 348.433 447.165 348.433H447.133ZM448.201 360.824C453.072 360.824 457.253 364.652 459.002 370.093H437.407C439.156 364.652 443.337 360.824 448.217 360.824H448.201ZM39.7964 349.251H55.5737L68.9515 382.347L82.3293 349.251H98.1066L76.8401 401.864L76.7679 402.048H61.1431L61.0628 401.864L39.7964 349.251ZM276.472 402.313H291.206V362.99H304.648V349.436H291.206V347.341C291.206 339.429 300.403 340.319 306.502 341.507V328.787C285.926 324.317 276.649 330.641 276.472 345.64V402.305V402.313Z" fill="white"/>
<path fill-rule="evenodd" clip-rule="evenodd" d="M355.511 207.954C355.515 221.051 352.939 234.02 347.929 246.121C342.919 258.222 335.574 269.217 326.314 278.478C317.053 287.74 306.058 295.086 293.958 300.096C281.857 305.107 268.888 307.685 255.791 307.682C200.9 307.682 156.489 263.263 156.489 207.954C156.481 194.911 159.043 181.994 164.031 169.943C169.018 157.891 176.332 146.94 185.555 137.718C194.778 128.495 205.728 121.181 217.78 116.193C229.832 111.206 242.748 108.643 255.791 108.652C310.683 108.652 355.511 153.062 355.511 207.954Z" fill="white"/>
<path fill-rule="evenodd" clip-rule="evenodd" d="M313.66 212.905C313.66 242.454 288.951 266.184 258.712 266.184C225.264 266.184 202.465 236.932 203.059 204.15C203.059 156.232 243.056 117.479 292.474 117.479C294.528 117.479 296.567 117.549 298.589 117.688C280.934 126.226 268.896 142.236 268.31 160.702C293.991 165.092 313.66 186.792 313.66 212.937V212.905Z" fill="#FF0001"/>
</g>
<defs>
<clipPath id="clip0_607_12">
<rect width="512" height="512" fill="white"/>
</clipPath>
</defs>
</svg>
